<svg id="Layer_1" data-name="Layer 1" xmlns="http://www.w3.org/2000/svg" viewBox="0 0 152 33"><defs><style>.cls-1{fill:#333;}.cls-2{fill:#24dcb6;}</style></defs><title>sg-logo</title><path class="cls-1" d="M4.3,1.4V7.1H10V1.4h3.7v14H9.9V10H4.3v5.4H.6V1.4Z"/><path class="cls-1" d="M21.6,1.4v14H17.9V1.4Z"/><path class="cls-1" d="M27.9,13.8a2.39,2.39,0,0,1-.5,1.4l-1.5,2.2H24.2l.9-2.2a1.71,1.71,0,0,1-.7-1.3,1.63,1.63,0,0,1,1.7-1.7A1.53,1.53,0,0,1,27.9,13.8Z"/><path class="cls-1" d="M38.4,1.4v14H34.7V1.4Z"/><path class="cls-1" d="M44.7,3.1a2.39,2.39,0,0,1-.5,1.4L42.7,6.7H41l1-2.2a1.71,1.71,0,0,1-.7-1.3A1.63,1.63,0,0,1,43,1.5,1.5,1.5,0,0,1,44.7,3.1Z"/><path class="cls-1" d="M52,1.4l3.7,8.2,3.7-8.2h4v14H60.2V6.5L56.9,14H54.5L51.2,6.5v8.9H48V1.4Z"/><path class="cls-1" d="M78.9,4.2c-.9,0-1.5.3-1.5,1,0,2.3,7.4,1,7.4,6,0,2.9-2.5,4.3-5.6,4.3a11.29,11.29,0,0,1-6.5-2.2l1.4-2.9a9,9,0,0,0,5.1,2.1c1.1,0,1.8-.4,1.8-1.1,0-2.4-7.4-.9-7.4-5.9,0-2.6,2.2-4.3,5.6-4.3a10.23,10.23,0,0,1,5.6,1.6L83.4,5.7A11.86,11.86,0,0,0,78.9,4.2Z"/><path class="cls-1" d="M97.5,12.9H91.4l-1,2.5H86.6l6-14h3.8l5.9,14H98.4Zm-1-2.8-1.9-5-2,5Z"/><path class="cls-1" d="M114.1,15.4l-2-3.9h-2.7v3.9h-3.7V1.4H112c3.7,0,5.8,1.8,5.8,4.9a4.72,4.72,0,0,1-2.5,4.5l2.9,4.6Zm-4.8-6.8H112a2,2,0,0,0,2.3-2.2c0-1.4-.9-2.1-2.3-2.1h-2.7Z"/><path class="cls-1" d="M131.1,12.9H125l-1,2.5h-3.8l6-14H130l5.9,14H132ZM130,10.1l-1.9-5-2,5Z"/><path class="cls-1" d="M142.1,1.4V7.1h5.7V1.4h3.7v14h-3.7V10h-5.7v5.4h-3.7V1.4Z"/><rect class="cls-2" x="0.6" y="28.7" width="16.1" height="3.1"/></svg>